<?xml version="1.0" encoding="utf-8"?>
<!-- Generator: Adobe Illustrator 25.0.1, SVG Export Plug-In . SVG Version: 6.00 Build 0)  -->
<svg version="1.1" id="圖層_1" xmlns="http://www.w3.org/2000/svg" xmlns:xlink="http://www.w3.org/1999/xlink" x="0px" y="0px"
	 viewBox="0 0 200 200" style="enable-background:new 0 0 200 200;" xml:space="preserve">
<style type="text/css">
	.st0{fill:#FCEE21;}
	.st1{fill:#FFFFFF;}
</style>
<g>
	<g>
		<polygon class="st0" points="152.9,181.5 99.9,153.6 46.9,181.4 57.1,122.4 14.2,80.6 73.5,72.1 100.1,18.5 126.5,72.2 
			185.8,80.8 142.8,122.5 		"/>
	</g>
	<path class="st1" d="M124.8,73.2c-2.5,0-4.8-1.4-6-3.7L98.3,28.1c-0.5-1-0.7-2-0.7-3c0-2.5,1.4-4.8,3.7-6c3.3-1.6,7.3-0.3,9,3
		l20.5,41.3c0.5,1,0.7,2,0.7,3c0,2.5-1.4,4.8-3.7,6C126.8,72.9,125.8,73.2,124.8,73.2z"/>
	<path class="st1" d="M149.7,188.2c-1.1,0-2.1-0.3-3.1-0.8L102.5,164c-3.3-1.7-4.5-5.8-2.8-9.1c1.7-3.3,5.8-4.5,9.1-2.8l44.1,23.4
		c3.3,1.7,4.5,5.8,2.8,9.1C154.5,186.9,152.1,188.2,149.7,188.2z"/>
	<path class="st1" d="M148.4,126.2c-1.8,0-3.5-0.7-4.8-2.1c-2.6-2.7-2.5-6.9,0.2-9.5l37.3-35.8c2.7-2.6,6.9-2.5,9.5,0.2
		c2.6,2.7,2.5,6.9-0.2,9.5l-37.3,35.8C151.8,125.6,150.1,126.2,148.4,126.2z"/>
	<path d="M100.1,18.5l26.4,53.7l59.2,8.7l-42.9,41.7l10,59l-53-27.9l-53,27.8l10.2-59L14.2,80.6l59.3-8.5L100.1,18.5 M100.1,11.8
		c-2.5,0-4.9,1.4-6,3.7L69.1,66l-55.8,8c-2.5,0.4-4.6,2.1-5.4,4.6c-0.8,2.4-0.1,5.1,1.7,6.9l40.3,39.4l-9.6,55.5
		c-0.4,2.5,0.6,5.1,2.7,6.6c1.2,0.9,2.6,1.3,3.9,1.3c1.1,0,2.1-0.3,3.1-0.8l49.9-26.1l49.8,26.3c1,0.5,2.1,0.8,3.1,0.8
		c1.4,0,2.8-0.4,3.9-1.3c2.1-1.5,3.1-4,2.7-6.5l-9.5-55.5l40.4-39.3c1.8-1.8,2.5-4.4,1.7-6.9c-0.8-2.4-2.9-4.2-5.4-4.6L131,66
		l-24.9-50.5C105,13.2,102.6,11.8,100.1,11.8C100.1,11.8,100.1,11.8,100.1,11.8L100.1,11.8z"/>
	<path d="M73.7,122.8c-0.7,4.6-0.4,9.2,4.3,11.3c4.4,2,9.6,2.6,14.4,2.6c9.6,0,18.8-3.5,26.2-9.6c3.9-3.2,7.1-7.2,9.6-11.6
		c1.3-2.3-2.2-4.3-3.5-2c-4.7,8.5-12.6,15-22,17.7c-5.2,1.5-10.7,1.9-16,1.1c-2.4-0.4-5.2-0.8-7.4-2c-2.5-1.3-2.2-4-1.8-6.4
		C78,121.4,74.1,120.3,73.7,122.8L73.7,122.8z"/>
	<path d="M76.8,87c0,2.9,0,5.8,0,8.7c0,1.1,0.9,2.1,2,2c1.1,0,2-0.9,2-2c0-2.9,0-5.8,0-8.7c0-1.1-0.9-2.1-2-2
		C77.8,85,76.8,85.9,76.8,87L76.8,87z"/>
	<path d="M116.5,85.7c0,2.7,0,5.4,0,8.1c0,1.1,0.9,2.1,2,2c1.1,0,2-0.9,2-2c0-2.7,0-5.4,0-8.1c0-1.1-0.9-2.1-2-2
		C117.4,83.7,116.5,84.5,116.5,85.7L116.5,85.7z"/>
</g>
</svg>
